<svg version="1.1" viewBox="0.0 0.0 512.0 512.0" fill="none" stroke="none" stroke-linecap="square" stroke-miterlimit="10" xmlns:xlink="http://www.w3.org/1999/xlink" xmlns="http://www.w3.org/2000/svg"><clipPath id="p.0"><path d="m0 0l512.0 0l0 512.0l-512.0 0l0 -512.0z" clip-rule="nonzero"/></clipPath><g clip-path="url(#p.0)"><path fill="#000000" fill-opacity="0.0" d="m0 0l512.0 0l0 512.0l-512.0 0z" fill-rule="evenodd"/><path fill="#ff00ff" d="m144.70544 299.68222c0 -58.787506 47.656693 -106.4442 106.4442 -106.4442c28.230759 0 55.305252 11.21463 75.26741 31.176788c19.962189 19.962158 31.176788 47.036667 31.176788 75.26741c0 58.787506 -47.656677 106.444214 -106.4442 106.444214c-58.787506 0 -106.4442 -47.656708 -106.4442 -106.444214z" fill-rule="evenodd"/><path stroke="#800080" stroke-width="3.406824146981627" stroke-linejoin="round" stroke-linecap="butt" d="m144.70544 299.68222c0 -58.787506 47.656693 -106.4442 106.4442 -106.4442c28.230759 0 55.305252 11.21463 75.26741 31.176788c19.962189 19.962158 31.176788 47.036667 31.176788 75.26741c0 58.787506 -47.656677 106.444214 -106.4442 106.444214c-58.787506 0 -106.4442 -47.656708 -106.4442 -106.444214z" fill-rule="evenodd"/><path fill="#ffff00" d="m205.99722 290.70773c0 -27.616364 22.387482 -50.003845 50.003845 -50.003845c13.261841 0 25.9805 5.2682495 35.358032 14.645782c9.377533 9.377533 14.645782 22.096222 14.645782 35.358063c0 27.616333 -22.387482 50.003815 -50.003815 50.003815c-27.616364 0 -50.003845 -22.387482 -50.003845 -50.003815z" fill-rule="evenodd"/><path stroke="#888800" stroke-width="3.406824146981627" stroke-linejoin="round" stroke-linecap="butt" d="m205.99722 290.70773c0 -27.616364 22.387482 -50.003845 50.003845 -50.003845c13.261841 0 25.9805 5.2682495 35.358032 14.645782c9.377533 9.377533 14.645782 22.096222 14.645782 35.358063c0 27.616333 -22.387482 50.003815 -50.003815 50.003815c-27.616364 0 -50.003845 -22.387482 -50.003845 -50.003815z" fill-rule="evenodd"/><path fill="#ffff00" d="m209.08023 364.85287l93.839325 0l0 14.804047l-93.839325 0z" fill-rule="evenodd"/><path stroke="#888800" stroke-width="3.406824146981627" stroke-linejoin="round" stroke-linecap="butt" d="m209.08023 364.85287l93.839325 0l0 14.804047l-93.839325 0z" fill-rule="evenodd"/><path fill="#ffffff" d="m120.8189 226.58792l270.36218 0l0 43.24411l-270.36218 0z" fill-rule="evenodd"/><path stroke="#000000" stroke-width="4.0" stroke-linejoin="round" stroke-linecap="butt" d="m120.8189 226.58792l270.36218 0l0 43.24411l-270.36218 0z" fill-rule="evenodd"/><path fill="#ffffff" d="m174.17914 88.09726l153.94287 0l0 138.48819l-153.94287 0z" fill-rule="evenodd"/><path stroke="#000000" stroke-width="4.0" stroke-linejoin="round" stroke-linecap="butt" d="m174.17914 88.09726l153.94287 0l0 138.48819l-153.94287 0z" fill-rule="evenodd"/><path fill="#000000" d="m194.2949 127.40717l4.3766937 0l0 99.1811l-4.3766937 0z" fill-rule="evenodd"/><path fill="#000000" d="m230.73979 127.40717l4.3766937 0l0 99.1811l-4.3766937 0z" fill-rule="evenodd"/><path fill="#000000" d="m267.18466 127.40717l4.376709 0l0 99.1811l-4.376709 0z" fill-rule="evenodd"/><path fill="#000000" d="m303.62955 127.40717l4.376709 0l0 99.1811l-4.376709 0z" fill-rule="evenodd"/><path fill="#ffffff" d="m150.4252 90.11811c0 -11.941528 45.095856 -21.622047 100.72441 -21.622047c55.628555 0 100.72441 9.680519 100.72441 21.622047c0 11.941528 -45.095856 21.622047 -100.72441 21.622047c-55.628555 0 -100.72441 -9.680519 -100.72441 -21.622047z" fill-rule="evenodd"/><path stroke="#000000" stroke-width="4.0" stroke-linejoin="round" stroke-linecap="butt" d="m150.4252 90.11811c0 -11.941528 45.095856 -21.622047 100.72441 -21.622047c55.628555 0 100.72441 9.680519 100.72441 21.622047c0 11.941528 -45.095856 21.622047 -100.72441 21.622047c-55.628555 0 -100.72441 -9.680519 -100.72441 -21.622047z" fill-rule="evenodd"/></g></svg>